<svg xmlns="http://www.w3.org/2000/svg" viewBox="0 0 28.06 36.21"><defs><style>.cls-1{fill:#fff;}</style></defs><title>Recurso 6</title><g id="Capa_2" data-name="Capa 2"><g id="Capa_1-2" data-name="Capa 1"><path class="cls-1" d="M27.89,0H0V24.72c1.38,9.14,13.56,11.46,13.68,11.49h.05C26.31,34.73,28,24.74,28.06,24.64V0ZM13.72,35.88C13.35,35.81,1.66,33.48.33,24.7V.33h27.4V24.61c0,.07-1.72,9.8-14,11.26Z"/><path class="cls-1" d="M24.74,24.49V3.07H3.39V24.6C5.52,31.24,13.6,33,13.68,33h.06c7.94-1.17,11-8.44,11-8.51ZM3.72,3.4H24.18L20.56,7.07l-.4.24-.75-3V4l-.16,0-.85,3.31-1.16-.7L17,6.31l-.13.1.86,1.45-3,.73h-.32l0,.16,3.43.88-.23.4L3.72,24.15ZM21.33,6.81l-.94.93h0l-.12,0-.06-.23,1-.6.11-.07M20.12,9.72l-.13.5-.66,2.59c0-.62,0-2,0-2.89V9.64c0-.33,0-.58,0-.68h0v0h0l0,0,.71.67,0,.06M18.44,7.77l.11-.43.69-2.69c0,.67,0,2.16,0,3.09,0,.32,0,.58,0,.71a.65.65,0,0,0,0,.07l0,0-.33-.32-.4-.38v0m-.53.06-.54-.91.83.84Zm.48,1H19l0,0,0,0-.06.06-.62.65-.16,0-.17,0-2.81-.72,3.15,0h.1m0,1.15.08.32-1,.61.94-.93m2.33-.33.68,1.15-1-1.06Zm-1.12-1h0l.73-.77.06,0,.09,0,.45.12,2.54.65-2.92,0h-.93m4.83,15.78c-.14.32-3.11,7.15-10.69,8.28-.36-.08-7.91-1.85-10-8.11l13.12-13.3.06.07,1.57-.93.67,2.74v.32l.16,0,.82-3.2,1.38.83.22.23.13-.1-1-1.7,2.92-.72h.32l0-.16L21,7.88l.73-1.21.23-.22-.1-.13-.16.09,2.73-2.78Z"/><polygon class="cls-1" points="1.23 9.05 1.7 9.05 1.7 9.78 2.02 9.78 2.02 9.05 2.41 9.05 2.41 9.85 2.73 9.85 2.73 8.74 0.91 8.74 0.91 9.88 1.23 9.88 1.23 9.05"/><path class="cls-1" d="M1.86,12.16c.46,0,.86-.17.86-.61V10.9H.91v.65c0,.46.51.62,1,.62m-.64-1H2.42v.31c0,.28-.31.33-.58.33s-.62-.06-.62-.34Z"/><path class="cls-1" d="M1.55,14.36H2.73V14H1.54c-.24,0-.35-.1-.35-.3s.13-.27.37-.27H2.73v-.32H1.52c-.48,0-.66.27-.66.6s.23.61.69.61"/><path class="cls-1" d="M1.53,16.69v-.31c-.23,0-.34-.16-.34-.33s.33-.37.63-.37.63.12.63.38-.11.28-.32.32v.31a.64.64,0,0,0,.65-.64c0-.46-.42-.69-1-.69s-1,.22-1,.68.26.58.67.65"/><path class="cls-1" d="M1.82,19.06c.73,0,1-.39,1-.72s-.23-.72-1-.72-1,.38-1,.72.23.72,1,.72m0-1.12c.42,0,.64.17.64.41s-.25.41-.63.41-.64-.16-.64-.4.25-.41.64-.41"/><polygon class="cls-1" points="2.73 22.51 2.73 21.41 0.91 21.41 0.91 22.55 1.23 22.55 1.23 21.72 1.7 21.72 1.7 22.45 2.02 22.45 2.02 21.72 2.41 21.72 2.41 22.51 2.73 22.51"/><polygon class="cls-1" points="2.73 24.48 1.46 24.48 1.46 24.48 2.73 23.88 2.73 23.55 0.91 23.55 0.91 23.84 2.2 23.84 2.2 23.85 0.91 24.45 0.91 24.77 2.73 24.77 2.73 24.48"/><polygon class="cls-1" points="3.81 26.82 3.65 26.56 2.11 27.54 2.68 28.43 2.96 28.25 2.56 27.62 3.81 26.82"/><path class="cls-1" d="M3.29,29.27l.22.25.35-.16.36.42L4,30.09l.22.26,1-1.58L5,28.49Zm1.11.23-.25-.29.67-.33h0Z"/><polygon class="cls-1" points="7.89 31.13 6.81 32.05 6.81 32.05 7.37 30.74 7.1 30.54 6.43 32.31 6.67 32.49 8.15 31.32 7.89 31.13"/><polygon class="cls-1" points="8.04 33.38 9.04 33.91 9.19 33.63 8.46 33.24 8.68 32.83 9.32 33.17 9.48 32.89 8.83 32.54 9.02 32.2 9.72 32.58 9.87 32.29 8.9 31.77 8.04 33.38"/><path class="cls-1" d="M11.46,32.94l-.71-.26-.62,1.71.28.11.25-.67.31.11c.06,0,.14.06.16.14a.66.66,0,0,1-.06.29,1.39,1.39,0,0,0-.09.34l.32.12,0,0c-.05-.06,0-.1.06-.36s.07-.39,0-.5a.45.45,0,0,0,.36-.33.47.47,0,0,0-.26-.64m0,.57a.21.21,0,0,1-.31.15l-.35-.13.17-.46.37.13a.21.21,0,0,1,.12.3"/><path class="cls-1" d="M13.46,33.5l-.65-.14-.39,1.78.64.14c.45.1.71-.37.81-.8s0-.88-.41-1m.09.93c-.06.25-.2.59-.46.54l-.3-.07L13,33.74l.31.07c.27.06.26.38.2.63"/><path class="cls-1" d="M15.06,33.28l0,1.9.32-.09V34.7l.53-.15.19.34.33-.09-1-1.62Zm.29,1.09v-.75h0l.37.65Z"/><path class="cls-1" d="M17.36,32.48l-.61.26.71,1.68.6-.25c.43-.18.37-.71.2-1.12s-.49-.73-.89-.57m.54,1.41-.28.12-.47-1.1.29-.12c.26-.11.42.16.52.4s.18.6-.07.7"/><polygon class="cls-1" points="20.83 30.48 20.54 30.68 20.75 31.5 20.04 31.03 19.74 31.25 20.81 31.88 21.21 32.44 21.47 32.26 21.07 31.7 20.83 30.48"/><polygon class="cls-1" points="24.3 29.19 23.75 29.81 23.4 29.5 23.88 28.95 23.64 28.74 23.15 29.28 22.87 29.03 23.4 28.44 23.15 28.22 22.43 29.04 23.79 30.25 24.54 29.41 24.3 29.19"/><polygon class="cls-1" points="24.23 26.69 25.29 27.38 25.29 27.38 23.91 27.19 23.73 27.47 25.26 28.46 25.42 28.21 24.33 27.51 24.33 27.51 25.75 27.7 25.92 27.43 24.39 26.45 24.23 26.69"/><polygon class="cls-1" points="26.83 24.29 26.36 24.29 26.36 23.56 26.04 23.56 26.04 24.29 25.65 24.29 25.65 23.5 25.34 23.5 25.34 24.59 27.15 24.59 27.15 23.46 26.83 23.46 26.83 24.29"/><polygon class="cls-1" points="26.82 22.13 25.34 22.13 25.34 22.44 27.15 22.44 27.15 21.39 26.82 21.39 26.82 22.13"/><polygon class="cls-1" points="25.34 18.18 26.02 18.18 26.02 18.76 25.34 18.76 25.34 19.08 27.15 19.08 27.15 18.76 26.34 18.76 26.34 18.18 27.15 18.18 27.15 17.87 25.34 17.87 25.34 18.18"/><path class="cls-1" d="M26.24,15.43c-.73,0-1,.39-1,.72s.23.72,1,.72,1-.38,1-.72-.23-.72-1-.72m0,1.12c-.42,0-.64-.17-.64-.4s.25-.41.64-.41.64.17.64.41-.25.41-.64.41"/><polygon class="cls-1" points="25.34 14.43 27.15 14.43 27.15 14.14 25.86 14.14 25.86 14.13 27.15 13.53 27.15 13.21 25.34 13.21 25.34 13.51 26.6 13.51 26.6 13.51 25.34 14.1 25.34 14.43"/><path class="cls-1" d="M26.24,10.78c-.73,0-1,.39-1,.72s.23.72,1,.72,1-.38,1-.72-.23-.72-1-.72m0,1.12c-.42,0-.64-.17-.64-.4s.25-.41.64-.41.64.16.64.41-.25.4-.64.4"/><path class="cls-1" d="M25.84,8.55a.47.47,0,0,0-.51.47v.76h1.82v-.3h-.71V9.14a.21.21,0,0,1,.08-.2.6.6,0,0,1,.29,0,1.38,1.38,0,0,0,.34,0V8.52h0c0,.07-.08.06-.36.07s-.39.07-.46.19a.46.46,0,0,0-.44-.23m.29.92h-.49V9.08a.21.21,0,0,1,.24-.22c.17,0,.25.07.25.24Z"/><path class="cls-1" d="M1.43,2.75c.21,0,.33-.21.33-.65V1H1.58V2.12c0,.23-.05.33-.16.33s-.14-.12-.14-.35V1H1.1V2.13c0,.45.15.62.32.62"/><polygon class="cls-1" points="2.14 1.49 2.14 1.49 2.47 2.71 2.64 2.71 2.64 0.99 2.48 0.99 2.48 2.18 2.48 2.19 2.16 0.99 1.98 0.99 1.98 2.71 2.14 2.71 2.14 1.49"/><rect class="cls-1" x="2.86" y="0.99" width="0.17" height="1.71"/><polygon class="cls-1" points="3.62 2.71 3.89 0.99 3.72 0.99 3.54 2.29 3.54 2.29 3.37 0.99 3.18 0.99 3.46 2.71 3.62 2.71"/><polygon class="cls-1" points="4.68 2.4 4.24 2.4 4.24 1.96 4.63 1.96 4.63 1.66 4.24 1.66 4.24 1.3 4.66 1.3 4.66 0.99 4.07 0.99 4.07 2.71 4.68 2.71 4.68 2.4"/><path class="cls-1" d="M5.05,2h.18a.1.1,0,0,1,.11.07,1,1,0,0,1,0,.27,3,3,0,0,0,0,.33h.19v0s0-.08,0-.34,0-.37-.1-.43a.56.56,0,0,0,.12-.41c0-.21-.07-.48-.25-.48H4.89V2.71h.16Zm0-.75h.21c.08,0,.12.09.12.23s0,.23-.13.23h-.2Z"/><path class="cls-1" d="M6.06,2.45c-.09,0-.17-.07-.17-.28H5.73c0,.37.13.58.34.58s.32-.15.32-.56-.12-.42-.21-.46L6,1.63s-.08,0-.08-.18S6,1.24,6,1.24s.16.18.17.26h.17C6.37,1.29,6.3,1,6,1s-.31.34-.31.53c0,.37.13.45.26.5l.09,0a.2.2,0,0,1,.14.21c0,.19-.1.22-.17.22"/><rect class="cls-1" x="6.57" y="0.99" width="0.17" height="1.71"/><path class="cls-1" d="M7.66,1.81c0-.44-.09-.81-.33-.82H7V2.71h.35c.25,0,.33-.48.33-.9m-.52.6V1.29h.17c.15,0,.18.29.18.54s0,.58-.18.58Z"/><path class="cls-1" d="M8,2.35h.3l.05.35h.18L8.27,1h-.2L7.79,2.71H8Zm.15-1,.1.67h-.2Z"/><path class="cls-1" d="M9.42,1.81c0-.44-.09-.81-.33-.82H8.73V2.71h.35c.25,0,.34-.48.34-.9m-.52.6V1.29h.17c.15,0,.18.29.18.54s0,.58-.18.58Z"/><path class="cls-1" d="M10.17,2.35h.3l.06.35h.18L10.41,1h-.2L9.93,2.71h.18Zm.15-1h0l.1.67h-.21Z"/><path class="cls-1" d="M11.19,2.75c.21,0,.33-.21.33-.65V1h-.17V2.12c0,.23-.05.33-.16.33S11,2.33,11,2.1V1h-.17V2.13c0,.45.15.62.32.62"/><polygon class="cls-1" points="11.93 2.71 12.1 2.71 12.1 1.3 12.35 1.3 12.35 0.99 11.69 0.99 11.69 1.3 11.93 1.3 11.93 2.71"/><path class="cls-1" d="M12.86,2.75c.18,0,.39-.21.39-.9s-.21-.9-.39-.9-.39.21-.39.9.2.9.39.9m0-1.5c.14,0,.22.24.22.6s-.09.6-.22.6-.22-.24-.22-.6.09-.6.22-.6"/><polygon class="cls-1" points="13.61 1.49 13.61 1.49 13.94 2.71 14.11 2.71 14.11 0.99 13.95 0.99 13.95 2.18 13.95 2.19 13.63 0.99 13.45 0.99 13.45 2.71 13.61 2.71 13.61 1.49"/><path class="cls-1" d="M14.69,2.75c.18,0,.39-.21.39-.9s-.21-.9-.39-.9-.39.21-.39.9.2.9.39.9m0-1.5c.14,0,.22.24.22.6s-.09.6-.22.6-.22-.24-.22-.6.09-.6.22-.6"/><polygon class="cls-1" points="15.43 1.28 15.43 1.28 15.58 2.71 15.75 2.71 15.9 1.28 15.9 1.27 15.9 2.71 16.06 2.71 16.06 0.99 15.81 0.99 15.67 2.34 15.67 2.34 15.52 0.99 15.27 0.99 15.27 2.71 15.43 2.71 15.43 1.28"/><path class="cls-1" d="M16.46,2.35h.3l.05.35H17L16.7,1h-.19l-.29,1.71h.18Zm.15-1h0l.1.67H16.5Z"/><path class="cls-1" d="M18.24,1.81c0-.44-.09-.81-.33-.82h-.36V2.71h.35c.25,0,.34-.48.34-.9m-.52.6V1.29h.17c.15,0,.18.29.18.54s0,.58-.18.58Z"/><polygon class="cls-1" points="19.05 2.4 18.59 2.4 18.59 1.96 18.99 1.96 18.99 1.66 18.59 1.66 18.59 1.3 19.02 1.3 19.02 0.99 18.43 0.99 18.43 2.71 19.05 2.71 19.05 2.4"/><path class="cls-1" d="M20,2.75a.26.26,0,0,0,.2-.11l.1.19.09-.19-.09-.18a1.72,1.72,0,0,0,.09-.61c0-.68-.21-.9-.39-.9s-.39.21-.39.9.18.9.39.9m0-1.5c.13,0,.22.21.22.6a1.45,1.45,0,0,1,0,.37L20.08,2,20,2.24l.08.16a.12.12,0,0,1-.09,0c-.14,0-.22-.24-.22-.6s.09-.6.22-.6"/><path class="cls-1" d="M20.9,2.75c.21,0,.33-.21.33-.65V1h-.17V2.12c0,.23-.06.33-.16.33s-.15-.12-.15-.35V1h-.17V2.13c0,.45.15.62.32.62"/><polygon class="cls-1" points="22.07 2.4 21.62 2.4 21.62 1.96 22.02 1.96 22.02 1.66 21.62 1.66 21.62 1.3 22.05 1.3 22.05 0.99 21.45 0.99 21.45 2.71 22.07 2.71 22.07 2.4"/><path class="cls-1" d="M22.44,2h.18a.1.1,0,0,1,.11.07,1,1,0,0,1,0,.27,2,2,0,0,0,0,.33H23v0s0-.08,0-.34,0-.37-.1-.43a.54.54,0,0,0,.13-.41c0-.21-.07-.48-.26-.48h-.41V2.71h.16Zm0-.75h.21c.08,0,.12.09.12.23s0,.23-.13.23h-.2Z"/><polygon class="cls-1" points="23.77 2.4 23.32 2.4 23.32 1.96 23.72 1.96 23.72 1.66 23.32 1.66 23.32 1.3 23.75 1.3 23.75 0.99 23.16 0.99 23.16 2.71 23.77 2.71 23.77 2.4"/><polygon class="cls-1" points="24.15 2.71 24.32 2.71 24.32 1.3 24.56 1.3 24.56 0.99 23.91 0.99 23.91 1.3 24.15 1.3 24.15 2.71"/><path class="cls-1" d="M24.91,2.35h.3l.05.35h.18L25.15,1H25l-.28,1.71h.18Zm.15-1h0l.1.67h-.21Z"/><path class="cls-1" d="M25.78,2H26a.1.1,0,0,1,.11.07,1,1,0,0,1,0,.27,2.1,2.1,0,0,0,0,.33h.19v0s0-.08,0-.34,0-.37-.1-.43a.57.57,0,0,0,.12-.41c0-.21-.06-.48-.25-.48h-.41V2.71h.17Zm0-.75H26c.07,0,.12.09.12.23s0,.23-.13.23h-.2Z"/><path class="cls-1" d="M26.85,2.75c.18,0,.39-.21.39-.9s-.21-.9-.39-.9-.39.21-.39.9.2.9.39.9m0-1.5c.14,0,.22.24.22.6s-.09.6-.22.6-.22-.24-.22-.6.09-.6.22-.6"/><path class="cls-1" d="M21.23,19.19a1.59,1.59,0,0,0-.51-1.05c-.65-.6-1.78-.39-3,.23a4.78,4.78,0,0,0-3.25-.08,6.91,6.91,0,0,0-1.1-.34s0,0,0,0a.54.54,0,0,0-.53-.53.53.53,0,0,0-.52.46h0a1.31,1.31,0,0,0-1,.33c-.6.69.13,2.33.28,2.66a4.86,4.86,0,0,0-.47,2.08,4.81,4.81,0,0,0,.34,1.78,5.56,5.56,0,0,0-.29.89.51.51,0,0,0-.23-.06.53.53,0,1,0,0,1.07l.13,0a2.2,2.2,0,0,0,.13.62A1.25,1.25,0,0,0,12,28a2.82,2.82,0,0,0,2-.61l0-.06a4.81,4.81,0,0,0,3.94,0,4.86,4.86,0,0,0,.84.4.54.54,0,0,0,0,.14.53.53,0,0,0,1.06,0,1.32,1.32,0,0,0,1.08-.58c.41-.59.21-1.62-.35-2.8a4.78,4.78,0,0,0,.29-1.65,4.85,4.85,0,0,0-.27-1.6,4.64,4.64,0,0,0,.53-1.05h.12a.53.53,0,0,0,0-1.06M16,18.29a4.63,4.63,0,0,1,1.43.23c-.39.21-.79.46-1.18.73a8.8,8.8,0,0,0-1.13-.67v-.07h-.15l-.12-.06A4.74,4.74,0,0,1,16,18.29m-.61,1.58a.54.54,0,0,0-.38-.18h-.38s0,.09,0,.09a1.27,1.27,0,0,1,.6.24l-.16.13a.8.8,0,0,0-.39.24.36.36,0,0,1-.47,0c-.15-.1,0-.42-.1-.61a1.38,1.38,0,0,0-.49-.37.82.82,0,0,1,.5-.58c.19-.1.52-.14.61,0a.55.55,0,0,0,.42.24v-.32a8.34,8.34,0,0,1,.91.55l-.64.47M11.5,18.31a1.12,1.12,0,0,1,.78-.24h0a.53.53,0,0,0,.5.36.54.54,0,0,0,.45-.25,6.59,6.59,0,0,1,.82.24l-.11,0a.85.85,0,0,1-.32.09,2,2,0,0,0-.51.39,4.85,4.85,0,0,0-1.42,1.58c-.27-.62-.64-1.75-.24-2.22m-.13,4.58a4.53,4.53,0,0,1,.38-1.83l0,0c.19.14.33-.28.56-.33,0,.09.1.14.14.19s.42,0,.61,0,.14.09.19.14l.52.08a12.29,12.29,0,0,0-2.2,3.12,4.52,4.52,0,0,1-.24-1.46m.71,4.84a1,1,0,0,1-.65-.66,1.81,1.81,0,0,1-.12-.66.53.53,0,0,0,.07-.67,5.24,5.24,0,0,1,.23-.75,4.86,4.86,0,0,0,2.19,2.22,2.47,2.47,0,0,1-1.72.52m-.34-3.05a12,12,0,0,1,2.36-3.39l.18,0c.33.09.62.47,1,.56.19.56-.47,1.46.42,1.6.19,1.27-.33,2.63.47,3.85,0,.1.1-.09.14-.14.09-.38,0-.75.14-1.13a7,7,0,0,1,1.69-1.84c.38-.33.71-.75.47-1.22,0-.09-.19-.14-.38-.19s-.19-.56-.42-.7-.8,0-1.18-.14a1.72,1.72,0,0,0-1.08-.28,6.48,6.48,0,0,0-.33-.85c0-.18,0-.43,0-.57l0,0a1.32,1.32,0,0,0,.44.17c.19,0,.28.14.38.33,0,0,.19,0,.23,0a.26.26,0,0,0-.19-.33.8.8,0,0,1-.61-.32l.72-.52a8.45,8.45,0,0,1,1.12,1,17.39,17.39,0,0,1,2.92,4,4.59,4.59,0,0,1-8.52.13m8.93,2.51a1.1,1.1,0,0,1-.92.46.53.53,0,0,0-.49-.32.54.54,0,0,0-.39.16,4.59,4.59,0,0,1-.69-.3,4.87,4.87,0,0,0,2.21-2.35c.45,1,.6,1.86.27,2.35m-.1-4.3a4.59,4.59,0,0,1-.2,1.34,17.54,17.54,0,0,0-2.85-3.87,8.7,8.7,0,0,0-1.09-1,12.42,12.42,0,0,1,1.28-.77,4.6,4.6,0,0,1,2.86,4.25M20.44,21A4.87,4.87,0,0,0,18,18.49c1-.49,2-.68,2.54-.17a1.34,1.34,0,0,1,.44.91.53.53,0,0,0-.13.9,4.45,4.45,0,0,1-.42.87"/><path class="cls-1" d="M16.68,20.58s-.14,0-.19,0v.1c.09,0,.19.09.28,0s0-.09-.09-.14"/><path class="cls-1" d="M5.53,10.11a1.4,1.4,0,1,0,1.4,1.4,1.4,1.4,0,0,0-1.4-1.4"/><path class="cls-1" d="M12.89,9.14,12.58,9a2.86,2.86,0,0,0,.62-1.29A1.8,1.8,0,0,0,11.58,6a4.28,4.28,0,0,0,0-1.13c-.08-.51-.53-.72-1.15-.71S9.36,5.16,9,5.39s-.37.19-.6,0a3.79,3.79,0,0,0-.71-.72.85.85,0,0,0-1,0c-.09.14-.28.09-.51.14a.82.82,0,0,1-.6-.11c-.23-.11-.49.11-.83.23s.16.16.59.3a3.65,3.65,0,0,1,1.32.92c.16.25.21.05.32,0s.2.11.44.11a.6.6,0,0,1,.43.26A.46.46,0,0,0,8.07,7L8,7l0,0v.07a1.32,1.32,0,0,1-.21.49c-.12.18-.15.32-.1.41a.16.16,0,0,0,.14.08c.07,0,.15.11.18.24l0,.07a.28.28,0,0,0-.16,0c-.25.11-.43.59-.48,1a1.91,1.91,0,0,0,.14.9l.14.56a3.85,3.85,0,0,1-.2,1.32l0,.07a.52.52,0,0,0-.05.19v0c-.16.08-.31.19-.31.32a4.53,4.53,0,0,0,0,.67,1.47,1.47,0,0,0,.6.74c.24.16.47.16.3.37s0,.19.19.33-.34.53,0,.64.36-.09.6.09.3.26.6.05.39-.3.53-.23.14-.19.31-.28.37,0,.46-.2,0-.35.26-.44a1.12,1.12,0,0,1,.58-.07c.23,0,.44,0,.69,0s.88.05.55-.18a5.56,5.56,0,0,0-.86-.32.62.62,0,0,0-.09-.21l-.06-.12a5.4,5.4,0,0,1,0-1.16,4.24,4.24,0,0,0-.08-1.42c-.16-.42-.74-.46-1.12-.45h0l0,0s-.14-.07-.2-.41a1,1,0,0,1,.26-.72l.06-.07-.1-.08.14,0,.26,0h.16a3.28,3.28,0,0,1,1.14.1c.28.15.43.36.43.48s0,.25.14.27.11,0,.15-.12L13,10l0-.07c.12.08.24.15.34.1a.18.18,0,0,0,.09-.17.81.81,0,0,0-.52-.72m.34.74a.5.5,0,0,1-.16-.09.15.15,0,0,0-.15,0c-.08,0-.1.11-.12.2v0c0-.21-.21-.46-.52-.62A3.14,3.14,0,0,0,11,9.22h-.16l-.21,0a.36.36,0,0,0-.44.09.28.28,0,0,1-.29.09h0a.05.05,0,0,1,0-.06.1.1,0,0,1,0,0A.62.62,0,0,1,10,9a3.08,3.08,0,0,1,.38-.34l0,0a.94.94,0,0,1,.56.15l.36.14c.18,0,.63.12,1,.22l.45.13a.63.63,0,0,1,.4.56.05.05,0,0,1,0,0m-1.76,1.24a4.1,4.1,0,0,1,.07,1.36,5.8,5.8,0,0,0,0,1.21l.07.14v0c.07.12.08.16.06.18a.38.38,0,0,1-.3.09.21.21,0,0,1-.15-.06.28.28,0,0,1-.05-.18s0-.1,0-.15a.92.92,0,0,0,0-.41l-.28-.66a1,1,0,0,1,0-.33c0-.18,0-.4-.16-.51a.89.89,0,0,0-.76,0l-.38.1a.93.93,0,0,0-.48.32,4,4,0,0,0-.28.62,2.74,2.74,0,0,0-.11.4v.09l.25,0c.43,0,.87.08,1.1.42l.21.12.11.06,0,.21h0l-.2-.18A2.2,2.2,0,0,0,8.9,14c-.37.07-1.14.22-1.31-.09,0-.06,0-.51,0-.51a4.33,4.33,0,0,1,0-.45,1.93,1.93,0,0,1,.06-.5.39.39,0,0,1,0-.05.29.29,0,0,1,.06-.12,1.06,1.06,0,0,0,.43,0A.6.6,0,0,0,8.52,12a2.79,2.79,0,0,1,.84-.48l.15-.06.32-.14.13,0c.44-.14.54-.38.55-.53.42,0,.85.06,1,.33M7.86,7.93A.55.55,0,0,1,8,7.71a1.51,1.51,0,0,0,.23-.57h0a1.45,1.45,0,0,1,.35,0h.06c.19,0,.36.06.36.36a.9.9,0,0,0,.26.71l0,0a.31.31,0,0,1,.06.1.07.07,0,0,1,0,0,.12.12,0,0,1,0,0,1.2,1.2,0,0,1-.13.27,2.57,2.57,0,0,1-.13.24V9h0L9,9H9L8.92,9a.92.92,0,0,0-.19-.26.63.63,0,0,0-.29-.15A.29.29,0,0,1,8.2,8.3c0-.18-.17-.35-.34-.36M10,8.6l-.09.07-.13.09a2,2,0,0,0-.47.93l-.16.46a.7.7,0,0,1-.14.22l-.1-.07-.44-.45A3.79,3.79,0,0,0,8,9.39l-.06,0c-.05,0-.08,0-.08-.1a.72.72,0,0,1,0-.16.54.54,0,0,1,.22-.32c.05,0,.1.08.19.19l.11.14.52.67.14-.2.35-.51.25-.36a.35.35,0,0,1,.17-.14.25.25,0,0,1,.21,0L10,8.6m1.13-.08c-.21-.18,0-.42,0-.85A1,1,0,0,0,10.34,7c-.24-.07-.19-.21.09-.25a1.21,1.21,0,0,1,.92.28,1,1,0,0,1,.42,1.2c-.16.57-.46.48-.67.3m-.78-.42c0,.13,0,.17-.13.16l-.12,0A.51.51,0,0,1,9.87,8a.7.7,0,0,1,.09-.6,1.51,1.51,0,0,1,.37.72m-2.14-1h0v0h0v0m4-.75A1.7,1.7,0,0,1,13.08,8a1.34,1.34,0,0,1-.67,1c-.21.05-.13-.19.07-.74a1.5,1.5,0,0,0-.39-1.46,2.06,2.06,0,0,0-1.36-.55c-.32,0-.09-.14.24-.2a3.22,3.22,0,0,1,1.25.32m-1.75-1.2c.28,0,.16.41.14.64s-.14.12-.33-.15-.12-.49.19-.49M10,5.69c.11,0,.23.13.28.27s0,.27-.13.07-.26-.3-.16-.34M9.8,6c.14,0,.26.16.3.33s-.06.11-.2-.07S9.72,6.06,9.8,6m-2.12-.3c-.1-.09-.09-.19,0-.14s.07,0,.19.12-.12.11-.23,0m-.17-.39a.82.82,0,0,1-.81.11c-.26-.09-.32-.76.44-.74s1.1.9,1.1.9c-.21-.3-.57-.46-.72-.27m.55,1.06c.09-.28.92-.73.92-.73A5.7,5.7,0,0,0,8.7,7a1,1,0,0,1-.42,0C8,6.85,8,6.69,8.05,6.41m2.86,7.8c-.2-.09-.13-.19-.14-.37s-.09-.44-.32-.44a3.41,3.41,0,0,1-1.17-.25L9,13a3.52,3.52,0,0,1,.27-.62.8.8,0,0,1,.38-.25L10,12c.24-.08.47-.15.62,0s.09.17.08.36a1,1,0,0,0,0,.4l.29.67a.85.85,0,0,1,0,.33.61.61,0,0,0,.07.41c0,.1,0,.15-.19.08"/><path class="cls-1" d="M8.43,7.49a.06.06,0,0,0,.06-.06h0a.06.06,0,0,0-.06-.06h0a.06.06,0,1,0,0,.12"/></g></g></svg>
