<svg xmlns="http://www.w3.org/2000/svg" viewBox="0 0 42.95 26.57"><defs><style>.cls-1{fill:#454553;}</style></defs><title>Recurso 1</title><g id="Capa_2" data-name="Capa 2"><g id="Capa_1-2" data-name="Capa 1"><path class="cls-1" d="M20.85,13.49a.45.45,0,0,0-.82.07h0L14.79,24.8h2.39l1.17-2.54h4.06l1.09,2.54h2.42Zm-1.56,6.66,1.13-2.47,1.07,2.47Z"/><path class="cls-1" d="M13.23,13.73v6.6a3.12,3.12,0,0,1-.38,1.78,1.83,1.83,0,0,1-1.6.77,1.84,1.84,0,0,1-1.59-.76,3.23,3.23,0,0,1-.38-1.79V15.14a5.18,5.18,0,0,1-1.35.24,3.05,3.05,0,0,1-.85-.12v5.5A4.1,4.1,0,0,0,11.25,25a4.11,4.11,0,0,0,4.18-4.22v-7Z"/><path class="cls-1" d="M39.65,17.27a7.38,7.38,0,0,0-2.27-5.42A7.39,7.39,0,0,0,32,9.59a8.56,8.56,0,0,0-1.43.12A3.24,3.24,0,0,1,28.13,11h0a2.39,2.39,0,0,1-.56-.07,8.59,8.59,0,0,0-1.05.87,7.24,7.24,0,0,0-2.29,5.36,7.27,7.27,0,0,0,2.51,5.74,7.7,7.7,0,0,0,3.91,1.88h0l6.7,1.72-1.51-2.65a8.09,8.09,0,0,0,1.57-1.2,7.28,7.28,0,0,0,2.28-5.41m-4.6,3.17a4.42,4.42,0,0,1-7.53-3.22,4.29,4.29,0,0,1,1.28-3.16,4.44,4.44,0,0,1,6.27,0,4.35,4.35,0,0,1,1.27,3.19,4.39,4.39,0,0,1-1.29,3.19"/><path class="cls-1" d="M2.44,17.33H2.32a.53.53,0,0,1-.4-.64A109.23,109.23,0,0,1,5,5.72a14.34,14.34,0,0,1-4.49,1A.53.53,0,0,1,.5,5.67s3.39-.19,5.08-1.45c.12-.35.26-.69.38-1a10.93,10.93,0,0,1,.59-1.12.53.53,0,0,1,1,.21,2.8,2.8,0,0,1-.68,2.19,3.83,3.83,0,0,1-.38.38A108,108,0,0,0,3,16.92a.53.53,0,0,1-.51.41"/><path class="cls-1" d="M28.19.67a.53.53,0,0,0-.74.13,8.6,8.6,0,0,1-4.66,3.35,4.52,4.52,0,0,0-.4-.61.54.54,0,0,0,.18-.42A.53.53,0,0,0,22,2.61a3.59,3.59,0,0,0-.64.08,3.35,3.35,0,0,0-2.8-.14,1.72,1.72,0,0,0-1.09,1,12.43,12.43,0,0,0-3.08,1.33,4.78,4.78,0,0,1-1,.5,3.64,3.64,0,0,0-.58-.77.54.54,0,0,0,.14-.44.53.53,0,0,0-.6-.45,3.56,3.56,0,0,0-.62.15A3.27,3.27,0,0,0,9,4.09,1.53,1.53,0,0,0,8,5.53a1.06,1.06,0,0,0,.57.78,13.88,13.88,0,0,0-2.33,3.86c-.7,1.82-.73,3.28,0,4.11A2.12,2.12,0,0,0,7.9,15a4.26,4.26,0,0,0,.73-.07c2.45-.43,4.39-3,5-5.4a6.08,6.08,0,0,0,.11-3.1A6.23,6.23,0,0,0,15,5.83,11,11,0,0,1,17.8,4.62l.13.1a13.8,13.8,0,0,0-2.77,3.64c-.88,1.71-1,3.14-.46,4a2.29,2.29,0,0,0,2.07.92h.34c2.54-.18,4.78-2.61,5.67-4.92a5.74,5.74,0,0,0,.36-3.23A9.44,9.44,0,0,0,28.31,1.4a.53.53,0,0,0-.12-.73M11.66,5.09l.23.17a2.63,2.63,0,0,1,.4.43,6.78,6.78,0,0,1-1.61,0,5.55,5.55,0,0,1,1-.62M9.77,4.88a2.17,2.17,0,0,1,.37-.09,9.12,9.12,0,0,0-.81.69A.9.9,0,0,1,9,5.37a1.38,1.38,0,0,1,.73-.49m2.87,4.36c-.64,2.34-2.45,4.33-4.19,4.64-.72.13-1.2,0-1.46-.28-.4-.5-.32-1.67.22-3.05A12.81,12.81,0,0,1,9.68,6.64a8.55,8.55,0,0,0,3.07.05,5,5,0,0,1-.1,2.55M21.2,3.84l.22.19a2.86,2.86,0,0,1,.26.31,6.69,6.69,0,0,1-1.49,0,5.3,5.3,0,0,1,1-.48M21.79,8c-.88,2.29-2.93,4.11-4.76,4.24-.74.05-1.23-.09-1.45-.43-.35-.54-.16-1.64.52-3A12.83,12.83,0,0,1,19,5.17a7.72,7.72,0,0,0,3.06.19A4.63,4.63,0,0,1,21.79,8"/><path class="cls-1" d="M22.5,13.1a.65.65,0,0,1-.33-.09.75.75,0,0,1-.33-.85.52.52,0,0,1,.11-.24,93.26,93.26,0,0,1,8.31-8.4,2.22,2.22,0,0,1-.73,0c-1-.26-1.11-.81-1.09-1.11C28.51,1.56,29.71,1,30.54.9a1.55,1.55,0,0,1,1.3.35.87.87,0,0,1,.24.56l.39-.21,1.21-1c.47-.38,1-.81,1.43-.45.09.08.37.38.06.93a.59.59,0,0,1-.14.16,20.73,20.73,0,0,1-2,1.25,96.31,96.31,0,0,0-9.21,8.89l.07.06a.53.53,0,0,1,0,.75c-.57.56-1,.92-1.43.92M29.58,2.39l.21.07a2.62,2.62,0,0,0,1.38-.24A.55.55,0,0,1,31,2a1.26,1.26,0,0,0-.42,0,2,2,0,0,0-1,.43"/><path class="cls-1" d="M28,10.28a1.21,1.21,0,0,1-.52-.11A.89.89,0,0,1,27,9.35c0-.82,1-1.89,2.42-2.55.29-.14,1.18-.56,1.74-.08a1.19,1.19,0,0,1,.27,1.23.53.53,0,0,1-.64.36,3.06,3.06,0,0,1-1.61,1.64,2.71,2.71,0,0,1-1.15.33M30,7.7l-.11.05a3.9,3.9,0,0,0-1.77,1.46,2.2,2.2,0,0,0,.78-.31A1.92,1.92,0,0,0,29.76,8,.54.54,0,0,1,30,7.7m.29-.09h.14s0,0,0-.07l-.24.06h.08"/><path class="cls-1" d="M38.65,24.43a2.15,2.15,0,1,1,2.15,2.14,2.13,2.13,0,0,1-2.15-2.14m4,0a1.82,1.82,0,1,0-1.82,1.81,1.83,1.83,0,0,0,1.82-1.81m-.8,1.16h-.39l-.7-1.08h-.4v1.08H40V23.25h1c.42,0,.84.11.84.62s-.33.63-.74.64Zm-1.1-1.41c.29,0,.8.05.8-.32s-.32-.29-.57-.29h-.63v.6Z"/></g></g></svg>