<svg xmlns="http://www.w3.org/2000/svg" width="754" height="733" viewBox="0 0 754 733">
    <path fill="#FF004F" fill-rule="evenodd" d="M658.986 213.256c-19.241-31.89-38.566-62.828-65.318-90.988-34.185-36.323-64.098-70.508-108.967-94.011-16.687-7.414-30.97-17.649-44.569-28.257H6.505C4.316.31 2.147.652 0 1.026v713.918c34.795 11.698 74.023 13.984 115.066 16.26a3080.734 3080.734 0 0 0 198.706 0c60.713-3.28 111.34-26.73 162.544-54.847 15.458-8.493 30.98-17.425 46.844-26.345 96.148-55.552 224.345-98.284 230.755-232.891 2.136-55.552-36.323-108.968-64.099-153.836-10.928-16.762-20.873-33.524-30.83-50.03z"/>
</svg>
