<svg xmlns="http://www.w3.org/2000/svg" width="990" height="849" viewBox="0 0 990 849">
    <path fill="#FFE100" fill-rule="evenodd" d="M810.756 0l27.213 7.604C665.62 5.07 369.3-21.545 218.117 67.17 88.099 143.21-50.99 371.332 18.554 505.67c30.237 60.833 99.781 126.735 166.302 164.755 78.616 45.625 172.35 53.229 253.989 96.318 108.852 60.833 302.367 119.13 432.385 50.694 75.591-38.02 87.686-147.012 96.757-210.379 12.095-73.506 18.142-144.477 21.166-217.983 3.023-114.061-39.308-192.637-120.947-281.35C828.898 67.168 880.3 5.068 810.756 0z"/>
</svg>
